<?xml version="1.0" encoding="UTF-8"?>
<svg id="Layer_2" data-name="Layer 2" xmlns="http://www.w3.org/2000/svg" viewBox="0 0 180.05 98.8">
  <defs>
    <style>
      .cls-1 {
        fill: #231f20;
      }
    </style>
  </defs>
  <g id="Layer_1-2" data-name="Layer 1">
    <g>
      <path class="cls-1" d="m19.03,50.89c.09,3.19.13,6.37.13,9.52,0,8.31.2,16.63.59,24.94,0,1.44.24,2.95.72,4.53.48,1.57,1.38,2.76,2.69,3.54,3.46,1.49,6.61.96,9.45-1.57,1.36-1.31,2.41-2.82,3.15-4.53.74-1.71,1.38-3.46,1.9-5.25.13-.35.24-.68.33-.98.13-.48.26-1.03.39-1.64.17-.87.4-1.73.69-2.56.28-.83.67-1.47,1.15-1.9.66-.44,1.35-.45,2.07-.03.72.42,1.21,1,1.48,1.74.22,1.27.11,2.56-.33,3.87-.09.22-.15.44-.2.66-.61,2.49-.74,5.01-.39,7.55.17,1.01.44,2.01.79,3.02.48,1.23.77,2.45.85,3.68.09.96-.2,1.77-.85,2.43-.79.66-1.88.96-3.28.92-1.4-.04-2.76-.2-4.07-.46-.74-.13-1.38-.22-1.9-.26-2.71-.22-5.45-.46-8.2-.72-.96-.09-1.95-.15-2.95-.2-2.71-.31-5.45-.45-8.2-.43-2.76.02-5.47.43-8.14,1.21l-.52.13c-.61.22-1.25.39-1.9.52-.92.17-1.84.09-2.76-.26-.92-.35-1.49-1.03-1.71-2.03,0-.87.22-1.71.66-2.49.39-.88.83-1.75,1.31-2.62,1.09-2.01,1.99-4.13,2.69-6.37,1.4-5.51,2.3-11.16,2.69-16.93.39-5.77.57-11.51.52-17.19v-1.71c.26-8.71-.02-17.39-.85-26.05v-.07c-.31-3.11-.77-6.17-1.38-9.19-.31-1.4-.79-2.78-1.44-4.13-.52-1.18-.96-2.38-1.31-3.61-.26-1.14-.15-2.23.33-3.28.48-1.05,1.38-1.6,2.69-1.64.83.04,1.64.24,2.43.59.17.04.37.11.59.2,3.67,1.09,7.33,1.01,10.96-.26.17-.09.39-.17.66-.26.57-.26,1.15-.45,1.74-.56.59-.11,1.1.01,1.54.36.48.61.61,1.42.39,2.43-.22,1.01-.46,1.84-.72,2.49-2.49,6.91-3.95,14-4.36,21.26-.42,7.26-.47,14.55-.16,21.85.04.61.07,1.2.07,1.77Z"/>
      <path class="cls-1" d="m87.28,33.43c0,2.93.04,6.06.13,9.38.13,5.86.14,11.88.03,18.05-.11,6.17-.6,11.97-1.48,17.39-.88,5.43-2.38,10-4.53,13.72-2.36,3.5-5.77,5.67-10.24,6.5-4.86.79-8.97-.11-12.34-2.69-3.37-2.58-5.8-6.02-7.29-10.3-1.36-4.07-2.25-8.32-2.69-12.76-.44-4.44-.68-8.78-.72-13.03-.09-7.61.09-15.2.53-22.77.04-1.49.11-2.97.2-4.46.09-5.25.71-10.41,1.87-15.49,1.16-5.07,3.55-9.21,7.19-12.4,5.21-3.85,10.7-4.48,16.47-1.9,3.46,1.84,6.11,4.48,7.97,7.94,1.86,3.46,3.14,7.23,3.84,11.32.7,4.09,1.05,7.93,1.05,11.52Zm-13.58,27.76c-.04-2.67-.11-7.27-.2-13.81-.09-6.54-.17-13.08-.26-19.62-.09-6.54-.15-11.17-.2-13.88,0-.96-.1-2.2-.3-3.71-.2-1.51-.62-2.88-1.28-4.1-.66-1.22-1.68-1.92-3.08-2.1h-.39c-1.57.13-2.66.91-3.25,2.33-.59,1.42-.91,2.77-.95,4.04-.35,4.16-.61,8.33-.79,12.53-.13,3.06-.22,8.06-.26,15-.04,6.93-.07,13.88-.07,20.84s.04,11.94.13,14.96c.09,4.59.2,9.21.33,13.85,0,1.27.13,2.57.39,3.9.26,1.33.92,2.46,1.97,3.38.52.44,1.14.73,1.84.89.7.15,1.38.12,2.04-.1,1.01-.48,1.69-1.22,2.07-2.23.37-1.01.62-2.01.75-3.02.04-.17.09-.37.13-.59.53-2.76.9-5.51,1.12-8.27.26-4.73.35-9.45.26-14.18v-6.1Z"/>
      <path class="cls-1" d="m121.8,59.16c-.04-2.14-.28-4.16-.72-6.04-.44-1.88-1.38-3.39-2.82-4.53-.13-.13-.26-.24-.39-.33-.44-.26-.82-.56-1.15-.89s-.49-.73-.49-1.21c.09-.61.42-1.05.98-1.31.57-.26,1.14-.39,1.71-.39,3.67-.35,7.35-.42,11.02-.2h.85c.39,0,.87-.04,1.44-.13.96-.17,1.88-.23,2.76-.16.87.07,1.33.58,1.38,1.54-.04.57-.22,1.12-.53,1.64-1.66,3.24-2.72,6.76-3.18,10.57s-.71,7.5-.75,11.09v.26c-.04.18-.07.35-.07.52-.04,1.84-.1,4.33-.16,7.48s-.02,6.26.13,9.32c.15,3.06.49,5.34,1.02,6.83.09.22.22.48.39.79.22.48.44,1.02.66,1.61.22.59.3,1.12.23,1.57-.07.46-.4.8-1.02,1.02-.44.09-.9.07-1.38-.07-.79-.18-1.55-.35-2.3-.52-1.75-.57-3.57-.87-5.45-.92-1.66.04-3.3.2-4.92.46-1.71.26-3.41.42-5.12.46-1.71.04-3.41-.24-5.12-.85-2.62-1.09-4.86-2.75-6.69-4.96-1.84-2.21-3.22-4.67-4.13-7.38-1.36-4.02-2.25-8.26-2.69-12.7-.44-4.44-.68-8.78-.72-13.03-.09-7.61.09-15.2.52-22.77.04-1.49.11-2.97.2-4.46.09-5.25.71-10.41,1.87-15.49,1.16-5.07,3.55-9.21,7.19-12.4.53-.39,1.05-.76,1.58-1.12,3.37-2.01,6.98-2.79,10.83-2.33,3.85.46,7.2,2.02,10.04,4.69,1.53,1.53,2.74,3.74,3.64,6.63.9,2.89,1.02,5.56.36,8.01-.66,2.45-2.56,3.74-5.71,3.87-1.31,0-2.53-.4-3.64-1.21-1.12-.81-1.96-1.83-2.53-3.05-.79-2.27-.92-4.57-.39-6.89l.13-1.44c.26-1.75.17-3.41-.26-4.99-.44-1.58-1.64-2.49-3.61-2.76h-.39c-1.58.18-2.66.96-3.25,2.36-.59,1.4-.91,2.73-.95,4-.35,4.2-.61,8.38-.79,12.53-.13,3.06-.22,8.07-.26,15.03-.04,6.96-.07,13.89-.07,20.8s.04,11.9.13,14.96c0,.88-.02,1.95-.07,3.22-.13,2.27-.14,4.75-.03,7.42.11,2.67.58,5.02,1.41,7.05.83,2.03,2.3,3.23,4.4,3.58,1.66.18,3.08-.33,4.26-1.51,1.05-1.18,1.71-2.57,1.97-4.17.26-1.6.37-3.2.33-4.82,0-.53.02-1.05.07-1.58.13-4.55.17-9.08.13-13.58,0-1.14.02-2.32.07-3.54.04-1.84.07-3.7.07-5.58Z"/>
      <path class="cls-1" d="m179.81,33.43c0,2.93.04,6.06.13,9.38.13,5.86.14,11.88.03,18.05-.11,6.17-.6,11.97-1.48,17.39-.88,5.43-2.38,10-4.53,13.72-2.36,3.5-5.77,5.67-10.24,6.5-4.86.79-8.97-.11-12.34-2.69-3.37-2.58-5.8-6.02-7.29-10.3-1.36-4.07-2.25-8.32-2.69-12.76-.44-4.44-.68-8.78-.72-13.03-.09-7.61.09-15.2.53-22.77.04-1.49.11-2.97.2-4.46.09-5.25.71-10.41,1.87-15.49,1.16-5.07,3.55-9.21,7.19-12.4,5.21-3.85,10.7-4.48,16.47-1.9,3.46,1.84,6.11,4.48,7.97,7.94,1.86,3.46,3.14,7.23,3.84,11.32.7,4.09,1.05,7.93,1.05,11.52Zm-13.58,27.76c-.04-2.67-.11-7.27-.2-13.81-.09-6.54-.17-13.08-.26-19.62-.09-6.54-.15-11.17-.2-13.88,0-.96-.1-2.2-.3-3.71-.2-1.51-.62-2.88-1.28-4.1-.66-1.22-1.68-1.92-3.08-2.1h-.39c-1.57.13-2.66.91-3.25,2.33-.59,1.42-.91,2.77-.95,4.04-.35,4.16-.61,8.33-.79,12.53-.13,3.06-.22,8.06-.26,15-.04,6.93-.07,13.88-.07,20.84s.04,11.94.13,14.96c.09,4.59.2,9.21.33,13.85,0,1.27.13,2.57.39,3.9.26,1.33.92,2.46,1.97,3.38.52.44,1.14.73,1.84.89.7.15,1.38.12,2.04-.1,1.01-.48,1.69-1.22,2.07-2.23.37-1.01.62-2.01.75-3.02.04-.17.09-.37.13-.59.53-2.76.9-5.51,1.12-8.27.26-4.73.35-9.45.26-14.18v-6.1Z"/>
    </g>
  </g>
</svg>